<?xml version="1.0" standalone="no"?>
<!DOCTYPE svg PUBLIC "-//W3C//DTD SVG 20010904//EN"
 "http://www.w3.org/TR/2001/REC-SVG-20010904/DTD/svg10.dtd">
<svg version="1.0" xmlns="http://www.w3.org/2000/svg"
 width="512.000000pt" height="512.000000pt" viewBox="0 0 512.000000 512.000000"
 preserveAspectRatio="xMidYMid meet">

<g transform="translate(0.000000,512.000000) scale(0.100000,-0.100000)"
fill="#000000" stroke="none">
<path d="M2463 5106 c-185 -60 -281 -268 -204 -441 26 -59 86 -122 148 -157
l53 -30 0 -58 0 -57 -61 -7 c-207 -24 -442 -120 -618 -252 l-63 -47 -39 39
-38 39 14 40 c37 104 6 233 -75 315 -151 150 -406 107 -500 -85 -21 -41 -25
-65 -25 -135 0 -72 4 -92 27 -136 70 -133 222 -200 363 -160 l58 17 33 -32
c19 -18 34 -37 34 -42 0 -5 -22 -39 -49 -76 -130 -178 -210 -372 -242 -591
l-11 -80 -58 0 c-58 0 -58 0 -84 44 -95 162 -319 187 -447 49 -22 -24 -48 -61
-57 -81 -21 -49 -21 -165 0 -214 24 -53 92 -123 146 -148 123 -59 293 -4 357
114 19 35 21 36 82 36 l62 0 6 -47 c35 -248 129 -473 271 -649 l33 -40 -74
-74 -74 -73 -46 13 c-156 44 -310 -23 -376 -165 -57 -120 -28 -269 69 -357 52
-47 84 -63 154 -78 139 -28 283 51 345 190 21 45 23 174 4 218 l-14 34 75 75
75 74 83 -59 c168 -121 351 -197 550 -229 l110 -18 0 -62 c0 -54 -3 -62 -21
-68 -38 -12 -111 -88 -135 -140 -88 -188 66 -408 274 -393 102 7 183 63 234
161 33 64 32 175 -4 243 -27 52 -81 107 -124 126 -21 10 -24 18 -24 73 l0 61
85 12 c220 32 413 117 637 281 18 13 23 11 53 -20 l34 -34 -15 -45 c-23 -65
-15 -170 19 -236 94 -184 335 -227 485 -87 71 67 97 127 97 228 0 65 -5 89
-24 129 -32 65 -90 122 -154 152 -61 28 -176 33 -231 10 -33 -14 -35 -13 -70
23 l-36 37 48 64 c135 180 228 408 248 608 l7 62 63 0 c60 0 63 -1 83 -34 29
-46 92 -102 138 -122 21 -9 67 -17 104 -17 194 -3 327 187 263 375 -49 146
-226 222 -371 158 -53 -23 -124 -89 -145 -135 -11 -24 -16 -26 -72 -23 l-60 3
-13 88 c-23 161 -77 322 -122 362 -37 32 -98 25 -134 -15 -34 -39 -34 -68 6
-175 81 -222 81 -489 1 -719 -28 -82 -100 -220 -150 -288 l-36 -49 -49 46
c-35 33 -56 45 -78 45 -43 0 -80 -20 -97 -51 -26 -52 -16 -88 43 -150 l34 -36
-73 -50 c-207 -143 -411 -201 -671 -190 -140 5 -230 24 -354 73 -75 29 -207
104 -255 145 -31 25 -31 26 -15 50 32 45 17 113 -33 142 -34 21 -67 21 -100 2
-14 -8 -28 -14 -32 -15 -15 0 -101 133 -144 224 -25 52 -57 139 -71 193 -23
87 -26 116 -26 268 0 151 3 181 26 267 14 53 44 136 66 183 39 83 122 218 142
231 5 3 35 -17 65 -45 47 -44 62 -51 96 -51 56 0 98 42 98 100 0 36 -7 48 -51
95 -28 30 -48 59 -44 64 22 37 224 148 340 188 218 74 505 69 722 -12 83 -32
114 -31 152 1 26 22 31 33 31 71 0 35 -6 50 -27 72 -36 35 -193 87 -329 109
l-104 16 0 61 0 61 37 13 c57 21 136 106 161 174 79 211 -59 430 -280 443 -46
2 -88 -1 -115 -10z m184 -230 c97 -105 -33 -260 -155 -186 -39 24 -66 81 -58
122 21 105 142 142 213 64z m-1211 -530 c40 -40 45 -83 15 -132 -60 -98 -211
-44 -197 71 7 55 51 95 107 95 33 0 47 -6 75 -34z m-496 -1216 c40 -40 15
-128 -37 -131 -63 -4 -97 23 -97 77 0 66 87 101 134 54z m3350 -2 c26 -28 26
-82 0 -108 -30 -30 -83 -30 -114 1 -26 24 -26 81 -1 109 25 28 87 27 115 -2z
m-471 -1164 c94 -79 0 -227 -114 -180 -56 24 -81 100 -51 155 31 55 114 68
165 25z m-2457 -83 c63 -56 37 -156 -47 -179 -93 -26 -166 70 -120 158 20 38
41 49 92 50 33 0 50 -6 75 -29z m1239 -414 c44 -34 47 -89 7 -127 -47 -44
-128 -6 -128 60 0 60 76 102 121 67z"/>
<path d="M3820 4689 c-150 -23 -260 -149 -260 -300 0 -87 22 -148 76 -208 98
-109 237 -137 367 -73 113 56 170 147 171 272 1 61 -4 85 -25 131 -61 129
-191 200 -329 178z m108 -215 c34 -23 55 -71 48 -108 -7 -36 -49 -80 -84 -89
-35 -8 -89 11 -112 40 -34 44 -19 135 27 162 27 16 96 13 121 -5z"/>
<path d="M3348 4005 c-85 -47 -51 -185 45 -185 50 0 64 7 88 46 53 86 -45 188
-133 139z"/>
<path d="M2690 3801 c-97 -32 -187 -116 -216 -203 -22 -67 -15 -177 14 -234
47 -93 112 -144 214 -170 51 -13 71 -14 122 -4 33 7 74 19 90 27 54 28 113 92
141 154 23 53 27 71 23 138 -6 123 -69 221 -176 271 -51 25 -167 36 -212 21z
m125 -205 c38 -16 65 -60 65 -107 0 -48 -56 -99 -108 -99 -114 0 -153 160 -49
205 41 18 50 18 92 1z"/>
<path d="M1930 3377 c-87 -25 -156 -82 -202 -170 -19 -35 -23 -58 -23 -132 0
-78 4 -97 27 -141 57 -108 157 -169 278 -168 99 0 163 28 229 100 58 63 81
123 81 209 0 86 -23 146 -81 209 -79 87 -201 124 -309 93z m146 -215 c70 -56
51 -168 -31 -191 -82 -22 -156 43 -141 124 14 72 117 112 172 67z"/>
<path d="M2600 2831 c-87 -27 -165 -95 -203 -180 -33 -71 -30 -189 6 -258 105
-201 353 -238 509 -76 87 90 109 233 53 347 -54 108 -165 177 -283 175 -31 0
-68 -4 -82 -8z m163 -231 c20 -23 27 -40 27 -73 -1 -65 -44 -107 -112 -107
-90 0 -136 110 -74 179 46 51 113 51 159 1z"/>
<path d="M341 904 c-315 -84 -442 -461 -245 -723 128 -171 367 -229 546 -134
72 39 103 76 103 124 0 34 -6 46 -33 70 -41 37 -86 38 -132 4 -94 -69 -221
-54 -306 37 -54 57 -69 95 -69 178 0 88 21 136 83 192 80 72 179 86 285 38 59
-26 97 -20 132 22 44 52 24 123 -45 158 -95 48 -217 62 -319 34z"/>
<path d="M1234 911 c-94 -24 -187 -98 -230 -183 -34 -68 -47 -171 -41 -326 5
-120 8 -138 35 -196 36 -77 94 -136 170 -173 49 -24 69 -28 142 -28 71 0 94 4
141 26 79 37 133 90 171 167 l33 67 0 195 c0 190 -1 196 -26 251 -57 122 -165
196 -295 204 -38 2 -83 1 -100 -4z m146 -211 c67 -34 80 -73 80 -242 0 -130
-2 -147 -23 -182 -56 -98 -179 -99 -251 -3 -16 21 -20 47 -24 136 -6 149 3
213 36 252 49 59 115 73 182 39z"/>
<path d="M1831 906 c-28 -15 -50 -52 -51 -83 0 -12 58 -189 129 -394 146 -421
148 -424 232 -424 84 0 89 9 228 426 66 200 121 374 121 386 0 36 -22 73 -51
89 -45 23 -78 17 -113 -18 -26 -28 -44 -72 -106 -265 -41 -128 -77 -233 -80
-233 -3 0 -42 105 -85 233 -64 187 -86 238 -111 265 -35 35 -71 41 -113 18z"/>
<path d="M2724 886 l-34 -34 0 -392 0 -392 34 -34 c36 -36 67 -42 111 -22 54
24 55 35 55 447 0 409 -1 421 -51 447 -45 23 -78 17 -115 -20z"/>
<path d="M3124 886 l-35 -35 3 -396 3 -397 34 -30 34 -30 136 5 c154 5 200 17
275 75 58 44 106 110 137 190 20 48 23 76 23 187 1 97 -3 144 -16 186 -25 81
-88 170 -151 212 -77 52 -139 67 -285 67 l-124 0 -34 -34z m323 -192 c70 -52
97 -129 91 -254 -7 -154 -67 -229 -189 -238 l-59 -4 0 262 0 262 65 -4 c45 -3
73 -10 92 -24z"/>
<path d="M3982 895 c-35 -30 -45 -69 -27 -111 16 -39 51 -64 87 -64 l28 0 0
-320 c0 -348 2 -364 55 -388 33 -15 57 -15 90 0 54 24 55 35 55 448 0 413 -1
424 -55 448 -14 7 -66 12 -115 12 -80 0 -91 -2 -118 -25z"/>
<path d="M4702 893 c-61 -21 -145 -102 -172 -165 -31 -70 -32 -174 -3 -239 42
-94 137 -170 232 -185 23 -4 41 -10 41 -15 0 -5 -27 -36 -60 -70 -34 -34 -66
-71 -71 -82 -15 -27 -3 -80 24 -104 56 -52 112 -37 194 50 133 142 213 312
229 488 13 133 -50 250 -167 308 -53 26 -73 31 -133 30 -39 0 -90 -7 -114 -16z
m162 -194 c63 -29 72 -126 15 -173 -84 -71 -208 16 -166 117 26 61 89 84 151
56z"/>
</g>
</svg>
